PathFileType	4	(X/Y/Z)	D:\TRACE\spot_10-12-23\spot_arm_motion_2_2-v60.trc
DataRate	CameraRate	NumFrames	NumMarkers	Units	OrigDataRate	OrigDataStartFrame	OrigNumFrames
100.00	100.00	      35	9	mm	100.00	6126	      7000
Frame#	Time	front left toe			Front right toe			aft left toe			aft right toe			Arm			FL body			FR body			AL Body			AR Body			
		X1	Y1	Z1	X2	Y2	Z2	X3	Y3	Z3	X4	Y4	Z4	X5	Y5	Z5	X6	Y6	Z6	X7	Y7	Z7	X8	Y8	Z8	X9	Y9	Z9	

6126	61.250	-229.92639	11.19643	-98.48749	250.00491	21.98875	2.91729	-345.47787	63.10786	482.00552	123.89403	65.83868	581.75873	-7.32099	767.91479	-778.90686	-46.24661	554.60834	-119.55295	102.68240	561.33270	-90.35865	-220.96744	585.53973	746.84058	-73.98173	585.86060	778.04962	
6127	61.260	-229.50549	10.90306	-98.63213	249.74107	21.39950	2.04954	-344.39368	63.10966	481.95966	124.26896	66.35487	581.52765	-7.20468	760.92902	-779.99817	-46.99732	554.07587	-119.86611	102.17926	560.45850	-90.73843	-221.36716	587.45636	746.47742	-74.17411	587.45782	777.44946	
6128	61.270	-229.20285	10.75558	-98.79323	250.12003	21.37040	1.97479	-343.83743	63.31712	481.74817	125.07443	66.88660	581.43726	-7.26290	753.97821	-780.78510	-47.29634	552.98279	-120.09906	101.65527	559.62323	-91.50464	-221.63072	589.36768	745.99451	-74.31175	589.32056	777.10663	
6129	61.280	-228.84865	10.56655	-98.90714	250.72775	21.43243	1.96508	-343.46506	63.71064	481.31805	125.36878	67.20982	581.23865	-7.29700	747.36975	-781.54486	-47.56675	551.82007	-120.46791	101.13885	558.33777	-91.68159	-221.80138	591.28589	745.52887	-74.56095	591.37018	776.40326	
6130	61.290	-228.20163	10.29776	-98.99139	251.67468	21.65202	1.86912	-342.86771	63.63978	481.17764	125.80541	67.67936	580.95844	-7.42074	741.23016	-782.15381	-47.84426	550.46497	-120.58583	100.99805	557.34113	-91.83259	-222.31032	593.35437	744.76807	-75.20654	593.58594	776.02106	
6131	61.300	-227.79709	10.37568	-99.02682	250.68266	20.30229	1.03166	-343.19632	64.29641	480.77002	126.44872	68.07150	580.73633	-7.30114	735.74133	-782.73901	-48.36737	549.26526	-121.19801	100.94668	555.80310	-92.05689	-222.82797	595.32343	744.42676	-75.77928	595.81659	775.49158	
6132	61.310	-227.11761	10.27015	-99.05336	251.23032	20.50867	1.01665	-342.73392	64.47335	480.64444	126.82430	68.47693	580.56604	-7.35945	731.03772	-783.29633	-48.74648	548.01715	-121.45490	100.47906	554.72961	-92.38284	-223.04138	597.40558	744.07800	-76.03664	597.83752	775.18927	
6133	61.320	-225.95065	9.56919	-98.87003	252.70462	22.02676	0.62884	-342.01114	64.57770	480.59442	127.59686	68.86648	580.35858	-7.48309	727.19385	-783.85986	-49.01519	546.62561	-121.74778	99.96327	553.68964	-93.24526	-223.51964	599.34808	743.20221	-76.09109	599.84296	774.99243	
6134	61.330	-225.39659	9.46545	-98.93368	253.28036	21.82732	0.85661	-341.53979	64.75417	480.41684	127.98849	69.05331	580.15601	-7.27586	723.87878	-784.16962	-49.01873	545.19238	-121.91726	99.42062	552.65283	-93.45890	-223.49054	601.00903	743.10425	-76.43863	601.77460	774.46765	
6135	61.340	-225.36668	9.87895	-99.13551	254.33780	22.52735	1.13897	-341.01169	64.70497	480.35443	128.67450	69.31461	580.06171	-7.23943	721.75665	-784.47015	-49.28540	543.84436	-122.31908	99.86279	551.25916	-93.54607	-223.71175	602.62402	742.72968	-76.85268	603.58490	773.57123	
6136	61.350	-224.74207	9.81486	-99.20023	254.79774	22.52487	1.09731	-340.37012	64.73019	480.32074	129.47493	69.47813	580.06281	-7.13725	720.54712	-784.68781	-49.20284	542.64697	-122.39667	99.45970	550.56464	-94.00337	-224.22232	604.19159	742.73016	-77.21534	605.38892	773.33002	
6137	61.360	-224.22629	9.71418	-99.19623	254.62450	23.45178	1.07420	-339.73563	64.74344	480.10083	129.91328	69.48669	579.94049	-7.09414	719.96527	-784.89343	-49.17537	541.51788	-122.68685	99.95332	548.96661	-93.78747	-224.26588	605.22125	741.45044	-77.51617	606.58685	772.88330	
6138	61.370	-224.01456	9.86721	-99.07531	255.92432	22.48688	0.67088	-339.02905	64.63569	480.01395	130.42279	69.60274	579.82800	-7.00711	720.14917	-785.07123	-49.10699	540.83307	-123.00319	100.02222	548.48645	-94.08559	-224.65479	606.45209	741.43329	-77.30415	607.64111	772.41486	
6139	61.380	-223.44646	10.07097	-99.14398	256.06384	22.37656	0.68678	-338.52853	64.67829	479.81659	131.20001	69.67668	579.54163	-6.96929	721.13690	-785.05493	-49.05764	539.84747	-123.22669	99.88158	547.75958	-94.30750	-224.69006	606.93817	740.73187	-77.51672	608.26086	772.25189	
6140	61.390	-221.55762	9.28806	-99.11224	256.59387	22.60478	0.89858	-338.01306	64.70660	479.77344	131.80296	69.70055	579.48676	-7.02705	722.50006	-785.08734	-48.87333	539.23987	-123.23949	99.82695	547.07867	-94.62794	-225.04820	607.44623	739.85590	-77.80308	608.92841	771.66632	
6141	61.400	-220.90866	9.29799	-98.97327	257.54272	22.25283	1.52289	-337.22092	64.62035	479.72842	132.44022	69.66301	579.44379	-7.00140	724.35950	-785.06982	-48.76505	538.97601	-123.47089	99.69955	546.96490	-95.24229	-224.67860	607.88580	740.04919	-77.96781	609.17419	771.23572	
6142	61.410	-220.05132	9.21595	-98.90237	258.71512	22.47226	1.55544	-336.37848	64.40794	479.67810	133.30060	69.67226	579.65894	-6.99691	726.68506	-784.95538	-48.60783	538.73895	-123.70581	100.06867	546.71558	-95.26721	-224.58279	608.03577	739.90601	-77.73355	609.42950	771.22614	
6143	61.420	-219.41618	9.24527	-98.84496	258.93051	22.68245	0.75812	-335.86673	64.37700	479.61679	134.04964	69.68320	579.68988	-6.87354	729.01788	-784.74023	-48.33493	538.57605	-123.94286	100.36413	546.50116	-95.40936	-224.33598	608.07202	739.66058	-77.60358	609.39337	771.08636	
6144	61.430	-218.74533	9.28446	-98.80831	259.71854	22.82119	0.65026	-335.04956	64.24000	479.82501	134.71475	69.63632	579.62689	-6.37303	731.70300	-784.75220	-48.23695	538.59760	-124.22453	98.19984	547.94086	-96.52190	-224.13373	608.15820	740.14044	-77.25916	609.32825	770.93921	
6145	61.440	-217.81804	9.13731	-98.84298	260.95432	22.95366	0.85286	-334.12033	64.05224	479.91785	135.58260	69.54260	579.43860	-6.52155	734.40344	-784.68079	-48.21255	538.62921	-124.42496	100.98585	546.03204	-95.47058	-223.67104	608.20007	739.54700	-76.23212	609.11011	770.69806	
6146	61.450	-217.32138	9.31787	-98.80418	261.19574	22.78754	0.60477	-333.50482	63.99796	479.85965	136.33696	69.35932	579.38574	-6.56106	737.12701	-784.73645	-48.11367	538.70459	-124.61123	101.13863	545.94037	-95.65373	-223.38428	608.24103	739.49213	-75.83540	609.12091	770.64368	
6147	61.460	-216.44409	9.35781	-98.59081	261.71732	23.17062	0.45999	-332.63974	63.83617	479.92401	137.30815	69.09499	579.65869	-6.66474	739.51935	-784.77563	-48.04221	538.86963	-124.71404	101.36348	545.83136	-95.79135	-222.88200	608.21570	739.20477	-75.50475	608.96436	770.49835	
6148	61.470	-215.93602	9.74355	-98.54433	262.98105	23.50488	0.59048	-331.76120	63.58082	480.12244	137.93968	68.94923	579.67334	-6.36761	741.78528	-784.72174	-47.98642	539.08783	-124.85246	101.48596	545.71112	-95.94525	-222.25279	608.32898	738.90497	-75.05475	608.76813	770.42761	
6149	61.480	-215.37697	9.80483	-98.48416	263.16815	23.36217	0.51398	-330.42761	63.02075	480.27896	138.73631	68.75098	579.67719	-6.20405	743.96851	-784.65405	-47.77693	539.26898	-124.94990	101.34772	546.02002	-96.36658	-221.15585	608.40265	739.33508	-74.37080	608.68054	770.40503	
6150	61.490	-213.97469	9.31790	-98.39632	263.60312	25.40021	1.10813	-329.51038	62.75886	480.46036	139.83484	68.39294	579.60608	-6.12274	745.87384	-784.54810	-48.03920	540.50452	-125.54951	101.38297	546.01294	-96.59204	-220.84464	608.48071	739.66663	-73.94639	608.59399	770.36304	
6151	61.500	-213.17435	9.32205	-98.37180	265.77356	23.78111	1.25092	-328.25650	62.27519	480.60321	140.69000	68.22766	579.78931	-5.53359	747.49017	-784.61237	-47.44999	540.54565	-125.64806	102.52866	545.51672	-96.60181	-220.40482	608.56000	739.28876	-73.22259	608.33368	770.30518	
6152	61.510	-212.83682	10.07315	-98.12866	266.11383	23.30992	1.00304	-328.34216	62.44630	480.67313	141.65712	67.89730	579.77155	-5.50302	748.78680	-784.53796	-46.84281	540.57190	-125.63469	102.70798	545.23877	-96.58922	-219.37766	608.43182	739.39539	-72.48288	608.03064	770.01996	
6153	61.520	-211.34941	9.69405	-97.96469	266.95544	23.24035	1.15748	-327.56793	62.17136	480.60663	142.30118	67.29780	579.89539	-5.03328	749.77460	-784.55389	-46.63047	540.34363	-125.67651	102.75983	545.49640	-97.09704	-218.81149	608.47766	739.35907	-71.90010	607.81818	770.03015	
6154	61.530	-210.42712	9.69480	-97.80721	267.59583	23.56999	1.29586	-326.77100	61.86849	480.72391	143.31485	66.97380	580.01746	-4.71528	750.59979	-784.56506	-46.13863	540.22168	-125.73862	103.45492	545.08643	-97.05387	-218.15251	608.60681	739.12433	-71.30714	607.71533	769.98669	
6155	61.540	-209.54272	9.68696	-97.76308	268.32895	23.74730	0.89683	-325.82413	61.47276	480.75534	144.32445	66.70584	580.23389	-4.17322	751.07269	-784.49017	-45.45406	539.97021	-125.81141	103.67597	544.21307	-96.81772	-217.49371	608.80316	739.29840	-70.56814	607.71912	769.90039	
6156	61.550	-209.16963	10.25247	-97.71206	270.28983	23.72051	1.57999	-323.83533	60.55269	481.15634	145.04919	66.04289	580.19049	-3.49671	751.15753	-784.63495	-44.85806	539.75635	-125.89170	103.65913	544.04303	-97.24777	-216.81761	609.00897	739.43805	-69.32089	607.75256	769.83173	
6157	61.560	-207.84361	9.93855	-97.44845	270.82364	23.46581	1.68038	-323.09802	60.18180	481.24155	146.28069	65.87092	580.33466	-2.58958	751.04614	-784.96582	-44.49910	539.40546	-125.99014	104.61504	544.27667	-97.51797	-216.11084	609.24164	739.30664	-68.92860	607.98547	769.97748	
6158	61.570	-206.75577	10.00006	-97.33817	271.55789	23.53543	1.53726	-322.80612	60.01920	481.23926	147.32961	65.26003	580.43231	-2.03603	750.78058	-785.02454	-43.85981	539.02509	-125.99034	104.70262	543.44385	-97.77254	-215.49519	609.35388	738.79242	-67.18712	606.65997	771.14069	
6159	61.580	-206.48068	10.63363	-97.48101	272.35123	23.35561	1.68332	-321.80194	59.56750	481.26767	148.16672	64.74418	580.58875	-1.62647	750.38751	-785.11853	-43.16303	538.61255	-126.04310	105.46413	542.93066	-97.71793	-214.57033	609.68347	738.62183	-67.61752	608.11078	769.56641	
6160	61.590	-204.71419	10.03349	-97.09496	273.62338	23.50338	1.93914	-320.84848	59.15921	481.39044	149.19308	64.31309	580.66986	-0.97471	749.75446	-785.23572	-42.39398	538.20966	-126.20927	106.70172	542.08533	-97.47587	-213.96124	609.81287	738.42328	-67.03743	608.26880	769.45001	
